<svg width="127" height="39" viewBox="0 0 127 39" fill="none" xmlns="http://www.w3.org/2000/svg">
<path d="M6.096 23.816C7.024 23.816 7.704 23.632 8.136 23.264C8.568 22.896 8.784 22.448 8.784 21.92C8.784 21.44 8.608 21.048 8.256 20.744C7.92 20.44 7.416 20.184 6.744 19.976L5.208 19.496C4.408 19.224 3.704 18.92 3.096 18.584C2.488 18.232 2.016 17.792 1.68 17.264C1.344 16.736 1.176 16.072 1.176 15.272C1.176 13.976 1.664 12.952 2.64 12.2C3.616 11.432 4.952 11.048 6.648 11.048C7.544 11.048 8.344 11.136 9.048 11.312C9.752 11.488 10.304 11.744 10.704 12.08C11.104 12.4 11.304 12.784 11.304 13.232C11.304 13.536 11.224 13.808 11.064 14.048C10.92 14.288 10.736 14.48 10.512 14.624C10.128 14.368 9.616 14.136 8.976 13.928C8.352 13.72 7.664 13.616 6.912 13.616C6.096 13.616 5.464 13.768 5.016 14.072C4.584 14.376 4.368 14.776 4.368 15.272C4.368 15.656 4.52 15.976 4.824 16.232C5.128 16.488 5.592 16.704 6.216 16.88L7.584 17.312C8.992 17.728 10.072 18.296 10.824 19.016C11.592 19.736 11.976 20.712 11.976 21.944C11.976 23.256 11.472 24.328 10.464 25.16C9.472 25.976 8.04 26.384 6.168 26.384C5.192 26.384 4.32 26.272 3.552 26.048C2.8 25.84 2.208 25.552 1.776 25.184C1.344 24.8 1.128 24.384 1.128 23.936C1.128 23.552 1.232 23.232 1.44 22.976C1.664 22.72 1.92 22.528 2.208 22.4C2.608 22.752 3.136 23.08 3.792 23.384C4.464 23.672 5.232 23.816 6.096 23.816ZM24.3163 18.152V20.888H21.2683V18.512C21.2683 17.872 21.0843 17.408 20.7163 17.12C20.3643 16.832 19.9003 16.688 19.3243 16.688C18.9243 16.688 18.5563 16.752 18.2203 16.88C17.8843 17.008 17.6043 17.136 17.3803 17.264V20.888H14.3323V17.048C14.3323 16.68 14.4123 16.376 14.5723 16.136C14.7323 15.88 14.9803 15.64 15.3163 15.416C15.7963 15.096 16.4043 14.832 17.1403 14.624C17.8923 14.4 18.6523 14.288 19.4203 14.288C20.2043 14.288 20.9243 14.408 21.5803 14.648C22.2363 14.888 22.7883 15.24 23.2363 15.704C23.3483 15.816 23.4523 15.92 23.5483 16.016C23.6443 16.112 23.7243 16.224 23.7883 16.352C23.9323 16.576 24.0523 16.848 24.1483 17.168C24.2603 17.472 24.3163 17.8 24.3163 18.152ZM31.2523 18.392V20.888H28.2283V18.512C28.2283 17.872 28.0523 17.408 27.7003 17.12C27.3483 16.832 26.8843 16.688 26.3083 16.688C25.8763 16.688 25.4603 16.776 25.0603 16.952C24.6763 17.128 24.3403 17.36 24.0523 17.648L22.5403 15.8C23.0203 15.384 23.5963 15.032 24.2683 14.744C24.9563 14.44 25.7643 14.288 26.6923 14.288C27.5403 14.288 28.3083 14.432 28.9963 14.72C29.6843 14.992 30.2283 15.432 30.6283 16.04C31.0443 16.632 31.2523 17.416 31.2523 18.392ZM14.3323 19.736H17.3803V25.976C17.2523 26.008 17.0603 26.048 16.8043 26.096C16.5643 26.144 16.2923 26.168 15.9883 26.168C15.4283 26.168 15.0123 26.064 14.7403 25.856C14.4683 25.648 14.3323 25.28 14.3323 24.752V19.736ZM21.2683 19.736H24.3163V25.976C24.1883 26.008 23.9963 26.048 23.7403 26.096C23.5003 26.144 23.2363 26.168 22.9483 26.168C22.3723 26.168 21.9483 26.064 21.6763 25.856C21.4043 25.648 21.2683 25.28 21.2683 24.752V19.736ZM28.2283 19.736H31.2523V25.976C31.1243 26.008 30.9323 26.048 30.6763 26.096C30.4363 26.144 30.1723 26.168 29.8843 26.168C29.3083 26.168 28.8843 26.064 28.6123 25.856C28.3563 25.648 28.2283 25.28 28.2283 24.752V19.736ZM38.7891 26.36C37.2051 26.36 35.9491 26.048 35.0211 25.424C34.0931 24.8 33.6291 23.88 33.6291 22.664C33.6291 21.592 33.9651 20.776 34.6371 20.216C35.3251 19.64 36.3171 19.288 37.6131 19.16L40.9011 18.824V18.392C40.9011 17.768 40.6771 17.32 40.2291 17.048C39.7811 16.76 39.1651 16.616 38.3811 16.616C37.7571 16.616 37.1491 16.696 36.5571 16.856C35.9651 17.016 35.4371 17.2 34.9731 17.408C34.7971 17.28 34.6451 17.104 34.5171 16.88C34.4051 16.656 34.3491 16.424 34.3491 16.184C34.3491 15.592 34.6691 15.152 35.3091 14.864C35.7571 14.672 36.2771 14.528 36.8691 14.432C37.4771 14.336 38.0851 14.288 38.6931 14.288C40.2611 14.288 41.5091 14.624 42.4371 15.296C43.3811 15.952 43.8531 16.992 43.8531 18.416V23.96C43.8531 24.344 43.7571 24.648 43.5651 24.872C43.3891 25.096 43.1491 25.296 42.8451 25.472C42.3971 25.728 41.8291 25.936 41.1411 26.096C40.4531 26.272 39.6691 26.36 38.7891 26.36ZM38.7891 24.056C39.2531 24.056 39.6771 24.008 40.0611 23.912C40.4451 23.816 40.7251 23.712 40.9011 23.6V20.936L38.5731 21.152C37.9331 21.2 37.4451 21.344 37.1091 21.584C36.7731 21.808 36.6051 22.144 36.6051 22.592C36.6051 23.04 36.7811 23.4 37.1331 23.672C37.4851 23.928 38.0371 24.056 38.7891 24.056ZM49.8881 17.384V20.624H46.8401V17.144C46.8401 16.712 46.9361 16.36 47.1281 16.088C47.3201 15.8 47.6001 15.544 47.9681 15.32C48.4641 15.016 49.0801 14.768 49.8161 14.576C50.5521 14.384 51.3361 14.288 52.1681 14.288C53.6881 14.288 54.4481 14.76 54.4481 15.704C54.4481 15.928 54.4161 16.144 54.3521 16.352C54.2881 16.544 54.2081 16.704 54.1121 16.832C53.9521 16.8 53.7521 16.776 53.5121 16.76C53.2721 16.728 53.0241 16.712 52.7681 16.712C52.1921 16.712 51.6561 16.776 51.1601 16.904C50.6641 17.032 50.2401 17.192 49.8881 17.384ZM46.8401 19.664L49.8881 19.808V25.976C49.7601 26.008 49.5681 26.048 49.3121 26.096C49.0721 26.144 48.8001 26.168 48.4961 26.168C47.9361 26.168 47.5201 26.064 47.2481 25.856C46.9761 25.648 46.8401 25.28 46.8401 24.752V19.664ZM56.4272 19.664H59.4272V22.472C59.4272 22.984 59.5792 23.352 59.8832 23.576C60.2032 23.8 60.6432 23.912 61.2032 23.912C61.4592 23.912 61.7312 23.88 62.0192 23.816C62.3232 23.736 62.5792 23.656 62.7872 23.576C62.9152 23.704 63.0192 23.864 63.0992 24.056C63.1952 24.232 63.2432 24.44 63.2432 24.68C63.2432 25.16 63.0272 25.56 62.5952 25.88C62.1632 26.184 61.4672 26.336 60.5072 26.336C59.2432 26.336 58.2432 26.056 57.5072 25.496C56.7872 24.92 56.4272 23.976 56.4272 22.664V19.664ZM58.2512 17.24V14.864H62.9552C63.0352 14.976 63.1072 15.136 63.1712 15.344C63.2352 15.552 63.2672 15.784 63.2672 16.04C63.2672 16.44 63.1712 16.744 62.9792 16.952C62.7872 17.144 62.5312 17.24 62.2112 17.24H58.2512ZM59.4272 20.312H56.4272V11.648C56.5552 11.616 56.7392 11.576 56.9792 11.528C57.2352 11.48 57.5072 11.456 57.7952 11.456C58.3552 11.456 58.7632 11.56 59.0192 11.768C59.2912 11.976 59.4272 12.344 59.4272 12.872V20.312Z" fill="#52A5F5"/>
<path d="M73.3176 18.632C73.0936 19.496 72.8376 20.376 72.5496 21.272C72.2776 22.168 72.0136 23.008 71.7576 23.792C71.5176 24.576 71.3016 25.224 71.1096 25.736C70.9496 25.864 70.7256 25.968 70.4376 26.048C70.1656 26.144 69.8216 26.192 69.4056 26.192C68.9576 26.192 68.5496 26.128 68.1816 26C67.8296 25.856 67.5976 25.648 67.4856 25.376C67.3256 25.056 67.1496 24.6 66.9576 24.008C66.7816 23.416 66.5896 22.736 66.3816 21.968C66.1896 21.184 65.9896 20.376 65.7816 19.544C65.5896 18.712 65.4136 17.912 65.2536 17.144C65.0936 16.36 64.9576 15.656 64.8456 15.032C65.0056 14.872 65.2216 14.728 65.4936 14.6C65.7816 14.456 66.1016 14.384 66.4536 14.384C66.8856 14.384 67.2296 14.488 67.4856 14.696C67.7416 14.904 67.9096 15.256 67.9896 15.752C68.1336 16.712 68.2776 17.6 68.4216 18.416C68.5816 19.232 68.7256 19.968 68.8536 20.624C68.9816 21.28 69.0936 21.84 69.1896 22.304C69.3016 22.768 69.3896 23.12 69.4536 23.36H69.5496C69.6456 22.992 69.8056 22.408 70.0296 21.608C70.2536 20.808 70.5176 19.896 70.8216 18.872C71.1256 17.832 71.4296 16.792 71.7336 15.752C71.9576 15.624 72.1896 15.528 72.4296 15.464C72.6856 15.384 72.9816 15.344 73.3176 15.344C73.7496 15.344 74.1096 15.416 74.3976 15.56C74.7016 15.704 74.9016 15.92 74.9976 16.208C75.3176 17.216 75.6136 18.2 75.8856 19.16C76.1576 20.12 76.3976 20.968 76.6056 21.704C76.8296 22.44 76.9816 22.992 77.0616 23.36H77.1816C77.4536 22.032 77.7336 20.632 78.0216 19.16C78.3256 17.688 78.5816 16.216 78.7896 14.744C79.1896 14.504 79.6456 14.384 80.1576 14.384C80.5736 14.384 80.9096 14.48 81.1656 14.672C81.4376 14.848 81.5736 15.16 81.5736 15.608C81.5736 15.816 81.5256 16.176 81.4296 16.688C81.3496 17.184 81.2296 17.76 81.0696 18.416C80.9256 19.072 80.7576 19.768 80.5656 20.504C80.3736 21.224 80.1816 21.928 79.9896 22.616C79.7976 23.288 79.6136 23.904 79.4376 24.464C79.2616 25.008 79.1096 25.432 78.9816 25.736C78.8376 25.864 78.5976 25.968 78.2616 26.048C77.9256 26.144 77.5656 26.192 77.1816 26.192C76.1736 26.192 75.5736 25.944 75.3816 25.448C75.2216 24.968 75.0136 24.36 74.7576 23.624C74.5176 22.888 74.2696 22.088 74.0136 21.224C73.7576 20.344 73.5256 19.48 73.3176 18.632ZM88.2422 26.36C86.6582 26.36 85.4022 26.048 84.4742 25.424C83.5462 24.8 83.0822 23.88 83.0822 22.664C83.0822 21.592 83.4182 20.776 84.0902 20.216C84.7782 19.64 85.7702 19.288 87.0662 19.16L90.3542 18.824V18.392C90.3542 17.768 90.1302 17.32 89.6822 17.048C89.2342 16.76 88.6182 16.616 87.8342 16.616C87.2102 16.616 86.6022 16.696 86.0102 16.856C85.4182 17.016 84.8902 17.2 84.4262 17.408C84.2502 17.28 84.0982 17.104 83.9702 16.88C83.8582 16.656 83.8022 16.424 83.8022 16.184C83.8022 15.592 84.1222 15.152 84.7622 14.864C85.2102 14.672 85.7302 14.528 86.3222 14.432C86.9302 14.336 87.5382 14.288 88.1462 14.288C89.7142 14.288 90.9622 14.624 91.8902 15.296C92.8342 15.952 93.3062 16.992 93.3062 18.416V23.96C93.3062 24.344 93.2102 24.648 93.0182 24.872C92.8422 25.096 92.6022 25.296 92.2982 25.472C91.8502 25.728 91.2822 25.936 90.5942 26.096C89.9062 26.272 89.1222 26.36 88.2422 26.36ZM88.2422 24.056C88.7062 24.056 89.1302 24.008 89.5142 23.912C89.8982 23.816 90.1782 23.712 90.3542 23.6V20.936L88.0262 21.152C87.3862 21.2 86.8982 21.344 86.5622 21.584C86.2262 21.808 86.0582 22.144 86.0582 22.592C86.0582 23.04 86.2342 23.4 86.5862 23.672C86.9382 23.928 87.4902 24.056 88.2422 24.056ZM96.3413 19.664H99.3413V22.472C99.3413 22.984 99.4933 23.352 99.7973 23.576C100.117 23.8 100.557 23.912 101.117 23.912C101.373 23.912 101.645 23.88 101.933 23.816C102.237 23.736 102.493 23.656 102.701 23.576C102.829 23.704 102.933 23.864 103.013 24.056C103.109 24.232 103.157 24.44 103.157 24.68C103.157 25.16 102.941 25.56 102.509 25.88C102.077 26.184 101.381 26.336 100.421 26.336C99.1573 26.336 98.1573 26.056 97.4213 25.496C96.7013 24.92 96.3413 23.976 96.3413 22.664V19.664ZM98.1653 17.24V14.864H102.869C102.949 14.976 103.021 15.136 103.085 15.344C103.149 15.552 103.181 15.784 103.181 16.04C103.181 16.44 103.085 16.744 102.893 16.952C102.701 17.144 102.445 17.24 102.125 17.24H98.1653ZM99.3413 20.312H96.3413V11.648C96.4693 11.616 96.6533 11.576 96.8933 11.528C97.1493 11.48 97.4213 11.456 97.7093 11.456C98.2693 11.456 98.6773 11.56 98.9333 11.768C99.2053 11.976 99.3413 12.344 99.3413 12.872V20.312ZM106.685 21.848L106.541 19.712L112.925 18.776C112.877 18.184 112.645 17.672 112.229 17.24C111.813 16.792 111.221 16.568 110.453 16.568C109.637 16.568 108.965 16.848 108.437 17.408C107.909 17.968 107.637 18.768 107.621 19.808L107.693 21.104C107.821 22.096 108.205 22.832 108.845 23.312C109.501 23.776 110.317 24.008 111.293 24.008C111.965 24.008 112.589 23.912 113.165 23.72C113.741 23.512 114.197 23.296 114.533 23.072C114.757 23.2 114.941 23.376 115.085 23.6C115.229 23.824 115.301 24.064 115.301 24.32C115.301 24.736 115.117 25.104 114.749 25.424C114.381 25.728 113.877 25.96 113.237 26.12C112.613 26.28 111.901 26.36 111.101 26.36C109.853 26.36 108.749 26.128 107.789 25.664C106.845 25.2 106.101 24.512 105.557 23.6C105.029 22.672 104.765 21.536 104.765 20.192C104.765 19.2 104.917 18.336 105.221 17.6C105.525 16.848 105.941 16.232 106.469 15.752C106.997 15.256 107.597 14.888 108.269 14.648C108.957 14.408 109.685 14.288 110.453 14.288C111.509 14.288 112.437 14.504 113.237 14.936C114.037 15.352 114.661 15.936 115.109 16.688C115.557 17.44 115.781 18.304 115.781 19.28C115.781 19.728 115.661 20.064 115.421 20.288C115.197 20.512 114.877 20.656 114.461 20.72L106.685 21.848ZM121.208 17.384V20.624H118.16V17.144C118.16 16.712 118.256 16.36 118.448 16.088C118.64 15.8 118.92 15.544 119.288 15.32C119.784 15.016 120.4 14.768 121.136 14.576C121.872 14.384 122.656 14.288 123.488 14.288C125.008 14.288 125.768 14.76 125.768 15.704C125.768 15.928 125.736 16.144 125.672 16.352C125.608 16.544 125.528 16.704 125.432 16.832C125.272 16.8 125.072 16.776 124.832 16.76C124.592 16.728 124.344 16.712 124.088 16.712C123.512 16.712 122.976 16.776 122.48 16.904C121.984 17.032 121.56 17.192 121.208 17.384ZM118.16 19.664L121.208 19.808V25.976C121.08 26.008 120.888 26.048 120.632 26.096C120.392 26.144 120.12 26.168 119.816 26.168C119.256 26.168 118.84 26.064 118.568 25.856C118.296 25.648 118.16 25.28 118.16 24.752V19.664Z" fill="#FCFDFF"/>
</svg>
